<svg width="250" height="81" viewBox="0 0 250 81" fill="none" xmlns="http://www.w3.org/2000/svg">
<path fill-rule="evenodd" clip-rule="evenodd" d="M236.535 0.168081L249.901 0.16808L233.743 60.3982C233.128 62.693 232.283 64.7556 231.208 66.5861C230.133 68.4193 228.932 70.0283 227.6 71.4132C226.268 72.8007 224.838 73.9802 223.308 74.9568C221.778 75.9307 220.235 76.7286 218.684 77.3449C217.13 77.9613 215.603 78.415 214.103 78.7058C212.603 78.9967 211.217 79.1408 209.95 79.1408L185.838 79.1408C183.541 79.1408 181.562 78.8499 179.904 78.2682C178.243 77.6865 176.85 76.9073 175.724 75.9307C174.595 74.9568 173.716 73.8361 173.079 72.5686C172.44 71.3038 171.999 69.975 171.755 68.5901C171.509 67.2025 171.432 65.799 171.523 64.3794C171.611 62.9598 171.822 61.631 172.154 60.3982L177.002 42.3254C177.92 38.9019 179.324 36.0014 181.214 33.6213C183.102 31.2438 185.18 29.3092 187.448 27.8203C189.716 26.3313 192.032 25.2613 194.401 24.6102C196.768 23.9591 198.878 23.6336 200.729 23.6336L224.84 23.6336L221.259 36.9861L197.249 36.9861C195.468 36.9861 193.992 37.4397 192.823 38.3469C191.655 39.2542 190.836 40.5803 190.368 42.3254L185.547 60.2968C185.06 62.1113 185.146 63.4802 185.806 64.4034C186.467 65.3293 187.673 65.791 189.419 65.791L213.531 65.791C215.347 65.791 216.825 65.3293 217.965 64.4034C219.104 63.4802 219.906 62.146 220.377 60.3982L236.535 0.168081ZM162.13 11.2097C162.13 9.66743 161.668 8.29856 160.742 7.10047C159.817 5.90238 158.635 5.0992 157.194 4.68828C155.685 4.31204 154.238 4.39742 152.85 4.94444C151.463 5.49145 150.374 6.41737 149.585 7.71686L119.151 60.553L88.7151 7.71686C88.338 7.06845 87.8754 6.51077 87.3271 6.04914C86.7789 5.58751 86.1719 5.22729 85.5033 4.97112C84.8347 4.71229 84.1394 4.5602 83.42 4.50683C82.7006 4.45613 81.9812 4.5175 81.2618 4.68828C79.7883 5.09921 78.5955 5.90238 77.6889 7.10047C76.7797 8.29856 76.325 9.66743 76.325 11.2097L76.325 79.1408L89.6912 79.1408L89.6912 35.2917L113.495 76.934C114.078 77.9934 114.875 78.7992 115.886 79.3462C116.897 79.8932 117.985 80.1681 119.151 80.1681C120.35 80.1681 121.473 79.8932 122.518 79.3462C123.564 78.7992 124.377 77.9934 124.96 76.934L148.66 35.2917L148.66 79.1407L162.13 79.1407L162.13 11.2097ZM67.8902 65.791L19.667 65.791C17.9528 65.791 16.6263 65.3213 15.6823 64.3794C14.7409 63.4375 14.2703 62.1113 14.2703 60.3982L14.2703 24.3541C14.2703 22.5396 14.7329 21.1707 15.6582 20.2448C16.5835 19.3216 17.918 18.8599 19.667 18.8599L67.8902 18.8599L67.8902 5.51014L19.667 5.51014C17.3698 5.51014 15.3132 5.80099 13.4974 6.38269C11.6815 6.96439 10.0796 7.74356 8.69164 8.71751C7.30367 9.69412 6.11093 10.8148 5.11876 12.0823C4.12392 13.3498 3.31895 14.6759 2.70118 16.0608C2.08609 17.4484 1.63146 18.8519 1.33996 20.2715C1.04846 21.6937 0.901368 23.0199 0.901368 24.25L0.90137 60.3982C0.90137 62.693 1.19287 64.7557 1.77587 66.5862C2.35887 68.4193 3.13977 70.0283 4.1159 71.4132C5.09202 72.8008 6.21523 73.9802 7.48286 74.9568C8.75048 75.9307 10.0796 76.7286 11.4676 77.345C12.8556 77.9614 14.2596 78.415 15.6823 78.7058C17.105 78.9967 18.4342 79.1408 19.667 79.1408L67.8902 79.1408L67.8902 65.791Z" fill="#183054"/>
</svg>
