<svg width="249" height="80" viewBox="0 0 249 80" fill="none" xmlns="http://www.w3.org/2000/svg">
<path fill-rule="evenodd" clip-rule="evenodd" d="M235.634 -1.73332e-05L249 -1.79175e-05L232.842 60.2301C232.227 62.5249 231.382 64.5875 230.307 66.418C229.231 68.2512 228.031 69.8602 226.699 71.2451C225.367 72.6326 223.936 73.8121 222.407 74.7887C220.877 75.7626 219.334 76.5605 217.783 77.1768C216.229 77.7932 214.702 78.2469 213.202 78.5377C211.701 78.8286 210.316 78.9727 209.048 78.9727L184.937 78.9727C182.64 78.9727 180.661 78.6818 179.003 78.1001C177.342 77.5184 175.948 76.7392 174.823 75.7626C173.694 74.7887 172.814 73.668 172.178 72.4005C171.539 71.1357 171.097 69.8069 170.854 68.422C170.608 67.0344 170.53 65.6309 170.621 64.2113C170.709 62.7917 170.921 61.4629 171.252 60.2301L176.101 42.1573C177.018 38.7338 178.422 35.8333 180.313 33.4532C182.201 31.0757 184.279 29.1411 186.547 27.6522C188.815 26.1632 191.131 25.0932 193.5 24.4421C195.867 23.791 197.977 23.4655 199.827 23.4655L223.939 23.4655L220.358 36.818L196.348 36.818C194.567 36.818 193.091 37.2716 191.922 38.1788C190.753 39.0861 189.935 40.4122 189.467 42.1573L184.645 60.1287C184.159 61.9432 184.244 63.3121 184.905 64.2353C185.565 65.1612 186.771 65.6229 188.518 65.6229L212.629 65.6229C214.445 65.6229 215.924 65.1612 217.063 64.2353C218.203 63.3121 219.005 61.9779 219.476 60.2301L235.634 -1.73332e-05ZM161.229 11.0416C161.229 9.49933 160.766 8.13046 159.841 6.93237C158.916 5.73428 157.734 4.9311 156.292 4.52018C154.784 4.14394 153.337 4.22933 151.949 4.77634C150.561 5.32335 149.473 6.24927 148.684 7.54876L118.25 60.3849L87.8138 7.54876C87.4367 6.90035 86.974 6.34267 86.4258 5.88104C85.8775 5.41942 85.2705 5.05919 84.6019 4.80303C83.9333 4.5442 83.238 4.3921 82.5186 4.33873C81.7992 4.28803 81.0798 4.34941 80.3604 4.52018C78.8869 4.93111 77.6942 5.73428 76.7876 6.93237C75.8783 8.13047 75.4237 9.49933 75.4237 11.0416L75.4237 78.9727L88.7899 78.9727L88.7899 35.1236L112.594 76.7659C113.177 77.8253 113.974 78.6311 114.985 79.1781C115.996 79.7251 117.084 80 118.25 80C119.448 80 120.571 79.7251 121.617 79.1781C122.663 78.6311 123.476 77.8253 124.059 76.7659L147.758 35.1236L147.758 78.9726L161.229 78.9726L161.229 11.0416ZM66.9889 65.6229L18.7657 65.6229C17.0514 65.6229 15.725 65.1533 14.7809 64.2113C13.8396 63.2694 13.3689 61.9432 13.3689 60.2301L13.3689 24.186C13.3689 22.3715 13.8316 21.0026 14.7569 20.0767C15.6822 19.1535 17.0167 18.6918 18.7657 18.6918L66.9889 18.6918L66.9889 5.34204L18.7657 5.34204C16.4684 5.34204 14.4119 5.63289 12.596 6.21459C10.7802 6.7963 9.17824 7.57546 7.79028 8.54941C6.40231 9.52603 5.20956 10.6467 4.21739 11.9142C3.22255 13.1817 2.41758 14.5078 1.79981 15.8927C1.18472 17.2803 0.730089 18.6838 0.438588 20.1034C0.147088 21.5256 9.98884e-07 22.8518 1.05265e-06 24.0819L2.63274e-06 60.2301C2.73305e-06 62.5249 0.291503 64.5876 0.874504 66.4181C1.4575 68.2512 2.2384 69.8602 3.21453 71.2451C4.19065 72.6327 5.31386 73.8121 6.58149 74.7887C7.84911 75.7626 9.17825 76.5605 10.5662 77.1769C11.9542 77.7933 13.3582 78.2469 14.7809 78.5377C16.2037 78.8286 17.5328 78.9727 18.7657 78.9727L66.9889 78.9727L66.9889 65.6229Z" fill="white"/>
</svg>
