<svg width="49" height="49" viewBox="0 0 49 49" fill="none" xmlns="http://www.w3.org/2000/svg">
<path fill-rule="evenodd" clip-rule="evenodd" d="M24.7455 48.9023C38.0004 48.9023 48.7455 38.1572 48.7455 24.9023C48.7455 11.6475 38.0004 0.902344 24.7455 0.902344C11.4906 0.902344 0.745483 11.6475 0.745483 24.9023C0.745483 38.1572 11.4906 48.9023 24.7455 48.9023ZM17.7023 18.8821V35.5317H12.525V18.8821H17.7023ZM12.1741 13.5696C12.1741 11.9451 13.4806 10.6455 15.1136 10.6455C16.7468 10.6455 18.0532 11.9451 18.0532 13.5696C18.0532 15.1941 16.7468 16.4939 15.1136 16.4939C13.4806 16.4939 12.1741 15.1941 12.1741 13.5696ZM26.059 18.8821V21.3674C28.3452 17.1782 37.3169 16.7979 37.3169 25.5911V35.5317H32.2787V27.3782C32.2787 20.8765 26.1979 22.1208 26.1979 27.3782V35.5317H20.9928V18.8821H26.059Z" fill="white"/>
</svg>
