<svg width="372" height="121" viewBox="0 0 372 121" fill="none" xmlns="http://www.w3.org/2000/svg">
<path class="intro-logo__fill" d="M226.178 8.10449C228.235 7.29088 230.379 7.164 232.614 7.72364C234.75 8.3349 236.502 9.52957 237.873 11.3115C239.244 13.0937 239.93 15.1306 239.93 17.4248L239.93 118.472L219.968 118.472L219.968 53.2461L184.846 115.189C183.982 116.765 182.777 117.964 181.228 118.777C179.678 119.591 178.014 120 176.238 120C174.51 120 172.897 119.591 171.399 118.777C169.901 117.964 168.72 116.765 167.856 115.189L132.58 53.2461L132.58 118.472L112.772 118.472L112.772 17.4248C112.772 15.1306 113.446 13.0937 114.794 11.3115C116.137 9.5297 117.905 8.33488 120.088 7.72363C121.154 7.46961 122.221 7.37869 123.287 7.4541C124.353 7.53352 125.383 7.75958 126.374 8.14453C127.365 8.52557 128.265 9.0614 129.077 9.74805C129.889 10.4346 130.575 11.2642 131.134 12.2285L176.238 90.8223L221.339 12.2285C222.508 10.2957 224.121 8.91813 226.178 8.10449ZM100.272 28.8037L28.8096 28.8037C26.2177 28.8037 24.2394 29.4909 22.8682 30.8643C21.4971 32.2415 20.8115 34.2778 20.8115 36.9766L20.8115 90.5928C20.8116 93.1408 21.5093 95.1136 22.9043 96.5146C24.3033 97.9157 26.2693 98.6143 28.8096 98.6143L100.272 98.6143L100.272 118.472L28.8096 118.472C26.9826 118.472 25.0127 118.258 22.9043 117.825C20.7959 117.393 18.7151 116.718 16.6582 115.801C14.6014 114.884 12.6314 113.697 10.7529 112.248C8.8746 110.795 7.2101 109.041 5.76367 106.978C4.31712 104.918 3.15986 102.524 2.2959 99.7969C1.43197 97.0741 1.00004 94.0061 0.999999 90.5928L1 36.8223C1 34.9925 1.21841 33.0189 1.65039 30.9033C2.08236 28.792 2.7556 26.7043 3.66699 24.6406C4.58246 22.5807 5.77575 20.608 7.25 18.7227C8.72032 16.8373 10.4881 15.1695 12.5449 13.7168C14.6016 12.2682 16.9754 11.1094 19.666 10.2441C22.357 9.37886 25.4052 8.94629 28.8096 8.94629L100.272 8.94629L100.272 28.8037ZM370 1L346.055 90.5928C345.143 94.0061 343.891 97.0742 342.298 99.7969C340.705 102.524 338.925 104.918 336.951 106.978C334.978 109.041 332.858 110.795 330.591 112.248C328.324 113.697 326.037 114.884 323.738 115.801C321.436 116.718 319.173 117.393 316.949 117.825C314.726 118.258 312.673 118.472 310.795 118.472L275.063 118.472C271.659 118.472 268.726 118.039 266.269 117.174C263.808 116.309 261.743 115.15 260.074 113.697C258.402 112.249 257.098 110.581 256.155 108.695C255.208 106.814 254.554 104.837 254.193 102.777C253.829 100.714 253.714 98.6261 253.849 96.5147C253.979 94.4032 254.292 92.4264 254.783 90.5928L261.969 63.709C263.328 58.6166 265.409 54.3022 268.211 50.7617C271.009 47.2252 274.088 44.3476 277.449 42.1328C280.81 39.9181 284.242 38.3259 287.753 37.3574C291.26 36.389 294.387 35.9053 297.13 35.9053L332.861 35.9053L327.555 55.7666L291.974 55.7666C289.334 55.7666 287.147 56.4416 285.415 57.791C283.683 59.1405 282.47 61.1132 281.776 63.709L274.631 90.4414C273.91 93.1404 274.037 95.1765 275.016 96.5498C275.995 97.9271 277.782 98.6143 280.37 98.6143L316.102 98.6143C318.792 98.6142 320.984 97.927 322.672 96.5498C324.36 95.1765 325.55 93.1924 326.247 90.5928L350.192 1L370 1Z"/>

<path class="intro-logo__outline" d="M226.178 8.10449L225.81 7.17461L225.81 7.17461L226.178 8.10449ZM232.614 7.72364L232.889 6.76223L232.873 6.75764L232.857 6.75358L232.614 7.72364ZM237.873 11.3115L238.666 10.7017L238.666 10.7017L237.873 11.3115ZM239.93 118.472L239.93 119.472L240.93 119.472L240.93 118.472L239.93 118.472ZM219.968 118.472L218.968 118.472L218.968 119.472L219.968 119.472L219.968 118.472ZM219.968 53.2461L220.968 53.2461L220.968 49.455L219.098 52.7529L219.968 53.2461ZM184.846 115.189L183.976 114.696L183.972 114.702L183.969 114.709L184.846 115.189ZM181.228 118.777L181.692 119.663L181.692 119.663L181.228 118.777ZM176.238 120L176.238 121L176.238 121L176.238 120ZM171.399 118.777L170.922 119.656L170.922 119.656L171.399 118.777ZM167.856 115.189L168.733 114.709L168.729 114.702L168.725 114.695L167.856 115.189ZM132.58 53.2461L133.449 52.7512L131.58 49.4694L131.58 53.2461L132.58 53.2461ZM132.58 118.472L132.58 119.472L133.58 119.472L133.58 118.472L132.58 118.472ZM112.772 118.472L111.772 118.472L111.772 119.472L112.772 119.472L112.772 118.472ZM114.794 11.3115L115.592 11.9146L115.592 11.9135L114.794 11.3115ZM120.088 7.72363L119.856 6.75087L119.837 6.75539L119.818 6.76066L120.088 7.72363ZM123.287 7.4541L123.361 6.45686L123.358 6.4566L123.287 7.4541ZM126.374 8.14453L126.012 9.07664L126.015 9.07788L126.374 8.14453ZM129.077 9.74805L129.723 8.98432L129.723 8.9843L129.077 9.74805ZM131.134 12.2285L132.001 11.7308L131.999 11.7272L131.134 12.2285ZM176.238 90.8223L175.371 91.32L176.238 92.8314L177.106 91.32L176.238 90.8223ZM221.339 12.2285L220.483 11.711L220.477 11.7208L220.472 11.7308L221.339 12.2285ZM100.272 28.8037L100.272 29.8037L101.272 29.8037L101.272 28.8037L100.272 28.8037ZM22.8682 30.8643L22.1605 30.1577L22.1595 30.1588L22.8682 30.8643ZM20.8115 36.9766L19.8115 36.9766L19.8115 36.9766L20.8115 36.9766ZM20.8115 90.5928L19.8115 90.5928L19.8115 90.5928L20.8115 90.5928ZM22.9043 96.5146L22.1956 97.2202L22.1967 97.2212L22.9043 96.5146ZM100.272 98.6143L101.272 98.6143L101.272 97.6143L100.272 97.6143L100.272 98.6143ZM100.272 118.472L100.272 119.472L101.272 119.472L101.272 118.472L100.272 118.472ZM22.9043 117.825L22.7033 118.805L22.7033 118.805L22.9043 117.825ZM16.6582 115.801L16.2511 116.714L16.2511 116.714L16.6582 115.801ZM10.7529 112.248L10.1412 113.039L10.1422 113.04L10.7529 112.248ZM5.76367 106.978L6.58257 106.404L6.58205 106.403L5.76367 106.978ZM2.2959 99.7969L3.24919 99.4948L3.24907 99.4944L2.2959 99.7969ZM0.999999 90.5928L-1.06838e-06 90.5928L-1.06838e-06 90.5928L0.999999 90.5928ZM1.65039 30.9033L0.670685 30.7029L0.670607 30.7033L1.65039 30.9033ZM3.66699 24.6406L2.75317 24.2345L2.75223 24.2366L3.66699 24.6406ZM7.25 18.7227L8.03775 19.3386L8.03855 19.3376L7.25 18.7227ZM12.5449 13.7168L11.9691 12.8992L11.968 12.9L12.5449 13.7168ZM19.666 10.2441L19.3599 9.29215L19.3599 9.29215L19.666 10.2441ZM100.272 8.94629L101.272 8.94629L101.272 7.94629L100.272 7.94629L100.272 8.94629ZM370 1L370.966 1.25821L371.302 4.41581e-06L370 4.40028e-06L370 1ZM346.055 90.5928L345.089 90.3346L345.089 90.3348L346.055 90.5928ZM342.298 99.7969L341.435 99.2919L341.434 99.2924L342.298 99.7969ZM336.951 106.978L336.229 106.286L336.228 106.286L336.951 106.978ZM330.591 112.248L331.129 113.091L331.13 113.09L330.591 112.248ZM323.738 115.801L324.108 116.73L324.109 116.73L323.738 115.801ZM316.949 117.825L317.14 118.807V118.807L316.949 117.825ZM310.795 118.472L310.795 119.472V119.472L310.795 118.472ZM266.269 117.174L266.601 116.231L266.6 116.23L266.269 117.174ZM260.074 113.697L260.731 112.943L260.729 112.941L260.074 113.697ZM256.155 108.695L257.05 108.248L257.048 108.246L256.155 108.695ZM254.193 102.777L255.178 102.605L255.178 102.603L254.193 102.777ZM253.849 96.5147L254.847 96.5783L254.847 96.5765L253.849 96.5147ZM254.783 90.5928L255.749 90.8516L255.749 90.851L254.783 90.5928ZM261.969 63.709L262.935 63.9672L262.935 63.9669L261.969 63.709ZM268.211 50.7617L268.995 51.3823L268.995 51.3822L268.211 50.7617ZM277.449 42.1328L276.899 41.2978L276.899 41.2978L277.449 42.1328ZM287.753 37.3574L288.019 38.3214L288.019 38.3214L287.753 37.3574ZM297.13 35.9053L297.13 36.9053L297.13 35.9053ZM332.861 35.9053L333.827 36.1634L334.164 34.9053L332.861 34.9053L332.861 35.9053ZM327.555 55.7666L327.555 56.7666L328.323 56.7666L328.521 56.0247L327.555 55.7666ZM291.974 55.7666L291.974 54.7666V54.7666L291.974 55.7666ZM285.415 57.791L284.8 57.0022L284.8 57.0022L285.415 57.791ZM281.776 63.709L282.742 63.9672L282.742 63.9671L281.776 63.709ZM274.631 90.4414L273.665 90.1832L273.665 90.1832L274.631 90.4414ZM275.016 96.5498L275.831 95.9705L275.83 95.9694L275.016 96.5498ZM280.37 98.6143L280.37 97.6143L280.37 98.6143ZM316.102 98.6143L316.102 99.6143L316.102 99.6143L316.102 98.6143ZM322.672 96.5498L322.041 95.7741L322.04 95.7749L322.672 96.5498ZM326.247 90.5928L327.213 90.8519L327.213 90.851L326.247 90.5928ZM350.192 1L350.192 4.16408e-06L349.425 4.15492e-06L349.226 0.741799L350.192 1ZM226.178 8.10449L226.546 9.03438C228.4 8.30101 230.33 8.18256 232.371 8.69369L232.614 7.72364L232.857 6.75358C230.428 6.14543 228.07 6.28075 225.81 7.17461L226.178 8.10449ZM232.614 7.72364L232.339 8.68504C234.267 9.23675 235.838 10.3069 237.081 11.9214L237.873 11.3115L238.666 10.7017C237.166 8.75228 235.233 7.43305 232.889 6.76223L232.614 7.72364ZM237.873 11.3115L237.081 11.9213C238.314 13.5249 238.93 15.3464 238.93 17.4248L239.93 17.4248L240.93 17.4248C240.93 14.9148 240.174 12.6624 238.666 10.7017L237.873 11.3115ZM239.93 17.4248L238.93 17.4248L238.93 118.472L239.93 118.472L240.93 118.472L240.93 17.4248L239.93 17.4248ZM239.93 118.472L239.93 117.472L219.968 117.472L219.968 118.472L219.968 119.472L239.93 119.472L239.93 118.472ZM219.968 118.472L220.968 118.472L220.968 53.2461L219.968 53.2461L218.968 53.2461L218.968 118.472L219.968 118.472ZM219.968 53.2461L219.098 52.7529L183.976 114.696L184.846 115.189L185.716 115.683L220.838 53.7393L219.968 53.2461ZM184.846 115.189L183.969 114.709C183.196 116.118 182.132 117.173 180.763 117.892L181.228 118.777L181.692 119.663C183.422 118.754 184.768 117.412 185.723 115.67L184.846 115.189ZM181.228 118.777L180.763 117.892C179.358 118.63 177.853 119 176.238 119L176.238 120L176.238 121C178.174 121 179.998 120.552 181.692 119.663L181.228 118.777ZM176.238 120L176.238 119C174.676 119 173.227 118.632 171.877 117.899L171.399 118.777L170.922 119.656C172.568 120.55 174.345 121 176.238 121L176.238 120ZM171.399 118.777L171.877 117.899C170.558 117.182 169.511 116.127 168.733 114.709L167.856 115.189L166.98 115.67C167.93 117.404 169.245 118.745 170.922 119.656L171.399 118.777ZM167.856 115.189L168.725 114.695L133.449 52.7512L132.58 53.2461L131.711 53.741L166.987 115.684L167.856 115.189ZM132.58 53.2461L131.58 53.2461L131.58 118.472L132.58 118.472L133.58 118.472L133.58 53.2461L132.58 53.2461ZM132.58 118.472L132.58 117.472L112.772 117.472L112.772 118.472L112.772 119.472L132.58 119.472L132.58 118.472ZM112.772 118.472L113.772 118.472L113.772 17.4248L112.772 17.4248L111.772 17.4248L111.772 118.472L112.772 118.472ZM112.772 17.4248L113.772 17.4248C113.772 15.3422 114.379 13.5184 115.592 11.9146L114.794 11.3115L113.996 10.7084C112.514 12.669 111.772 14.919 111.772 17.4248L112.772 17.4248ZM114.794 11.3115L115.592 11.9135C116.801 10.3107 118.38 9.2401 120.357 8.68661L120.088 7.72363L119.818 6.76066C117.429 7.42965 115.474 8.74871 113.995 10.7095L114.794 11.3115ZM120.088 7.72363L120.32 8.6964C121.29 8.46512 122.255 8.38362 123.217 8.45161L123.287 7.4541L123.358 6.4566C122.187 6.37375 121.018 6.4741 119.856 6.75087L120.088 7.72363ZM123.287 7.4541L123.213 8.45134C124.185 8.52376 125.118 8.72919 126.012 9.07663L126.374 8.14453L126.736 7.21243C125.649 6.78997 124.521 6.54328 123.361 6.45687L123.287 7.4541ZM126.374 8.14453L126.015 9.07788C126.9 9.41813 127.703 9.89609 128.432 10.5118L129.077 9.74805L129.723 8.9843C128.826 8.22672 127.83 7.63301 126.733 7.21118L126.374 8.14453ZM129.077 9.74805L128.432 10.5118C129.151 11.1197 129.764 11.8587 130.269 12.7298L131.134 12.2285L131.999 11.7272C131.386 10.6696 130.628 9.74961 129.723 8.98432L129.077 9.74805ZM131.134 12.2285L130.266 12.7263L175.371 91.32L176.238 90.8223L177.106 90.3245L132.001 11.7308L131.134 12.2285ZM176.238 90.8223L177.106 91.32L222.206 12.7262L221.339 12.2285L220.472 11.7308L175.371 90.3245L176.238 90.8223ZM221.339 12.2285L222.195 12.7461C223.254 10.9951 224.698 9.76537 226.546 9.03438L226.178 8.10449L225.81 7.17461C223.544 8.07089 221.762 9.59629 220.483 11.711L221.339 12.2285ZM100.272 28.8037L100.272 27.8037L28.8096 27.8037L28.8096 28.8037L28.8096 29.8037L100.272 29.8037L100.272 28.8037ZM28.8096 28.8037L28.8096 27.8037C26.0436 27.8037 23.7753 28.5404 22.1605 30.1577L22.8682 30.8643L23.5758 31.5708C24.7035 30.4414 26.3918 29.8037 28.8096 29.8037L28.8096 28.8037ZM22.8682 30.8643L22.1595 30.1588C20.5393 31.7863 19.8115 34.1176 19.8115 36.9766L20.8115 36.9766L21.8115 36.9766C21.8115 34.4379 22.4549 32.6968 23.5769 31.5698L22.8682 30.8643ZM20.8115 36.9766L19.8115 36.9766L19.8115 90.5928L20.8115 90.5928L21.8115 90.5928L21.8115 36.9766L20.8115 36.9766ZM20.8115 90.5928L19.8115 90.5928C19.8116 93.3258 20.5647 95.5821 22.1956 97.2202L22.9043 96.5146L23.6129 95.8091C22.454 94.6451 21.8116 92.9558 21.8115 90.5927L20.8115 90.5928ZM22.9043 96.5146L22.1967 97.2212C23.8325 98.8594 26.0827 99.6143 28.8096 99.6143L28.8096 98.6143L28.8096 97.6143C26.4558 97.6143 24.7741 96.9719 23.6119 95.8081L22.9043 96.5146ZM28.8096 98.6143L28.8096 99.6143L100.272 99.6143L100.272 98.6143L100.272 97.6143L28.8096 97.6143L28.8096 98.6143ZM100.272 98.6143L99.2725 98.6143L99.2725 118.472L100.272 118.472L101.272 118.472L101.272 98.6143L100.272 98.6143ZM100.272 118.472L100.272 117.472L28.8096 117.472L28.8096 118.472L28.8096 119.472L100.272 119.472L100.272 118.472ZM28.8096 118.472L28.8096 117.472C27.0599 117.472 25.1579 117.267 23.1053 116.846L22.9043 117.825L22.7033 118.805C24.8674 119.249 26.9052 119.472 28.8096 119.472L28.8096 118.472ZM22.9043 117.825L23.1053 116.846C21.0712 116.428 19.0594 115.776 17.0653 114.887L16.6582 115.801L16.2511 116.714C18.3708 117.659 20.5206 118.357 22.7033 118.805L22.9043 117.825ZM16.6582 115.801L17.0654 114.887C15.0854 114.005 13.1833 112.86 11.3636 111.456L10.7529 112.248L10.1422 113.04C12.0796 114.534 14.1174 115.763 16.2511 116.714L16.6582 115.801ZM10.7529 112.248L11.3647 111.457C9.56975 110.069 7.9741 108.389 6.58257 106.404L5.76367 106.978L4.94477 107.551C6.4461 109.694 8.17945 111.522 10.1412 113.039L10.7529 112.248ZM5.76367 106.978L6.58205 106.403C5.20127 104.437 4.08635 102.137 3.24919 99.4948L2.2959 99.7969L1.3426 100.099C2.23337 102.91 3.43298 105.399 4.94529 107.552L5.76367 106.978ZM2.2959 99.7969L3.24907 99.4944C2.42154 96.8864 2.00003 93.9229 2 90.5928L0.999999 90.5928L-1.06838e-06 90.5928C3.62024e-05 94.0893 0.442404 97.2619 1.34273 100.099L2.2959 99.7969ZM0.999999 90.5928L2 90.5928L2 36.8223L1 36.8223L-4.27176e-07 36.8223L-1.06838e-06 90.5928L0.999999 90.5928ZM1 36.8223L2 36.8223C2 35.0711 2.20914 33.1654 2.63017 31.1034L1.65039 30.9033L0.670607 30.7033C0.22768 32.8724 -4.04419e-07 34.9138 -4.27176e-07 36.8223L1 36.8223ZM1.65039 30.9033L2.6301 31.1038C3.04701 29.066 3.69769 27.0465 4.58176 25.0446L3.66699 24.6406L2.75223 24.2366C1.81351 26.3622 1.11771 28.518 0.670685 30.7029L1.65039 30.9033ZM3.66699 24.6406L4.58082 25.0467C5.46119 23.0657 6.61111 21.1631 8.03775 19.3386L7.25 18.7227L6.46225 18.1067C4.94038 20.0529 3.70373 22.0956 2.75317 24.2345L3.66699 24.6406ZM7.25 18.7227L8.03855 19.3376C9.44484 17.5344 11.1399 15.9334 13.1218 14.5336L12.5449 13.7168L11.968 12.9C9.83624 14.4056 7.99581 16.1402 6.46145 18.1077L7.25 18.7227ZM12.5449 13.7168L13.1207 14.5344C15.0857 13.1504 17.3664 12.034 19.9721 11.1961L19.666 10.2441L19.3599 9.29215C16.5843 10.1847 14.1175 11.3861 11.9691 12.8992L12.5449 13.7168ZM19.666 10.2441L19.9721 11.1961C22.5463 10.3684 25.4886 9.94629 28.8096 9.94629L28.8096 8.94629L28.8096 7.94629C25.3219 7.94629 22.1676 8.38932 19.3599 9.29215L19.666 10.2441ZM28.8096 8.94629L28.8096 9.94629L100.272 9.94629L100.272 8.94629L100.272 7.94629L28.8096 7.94629L28.8096 8.94629ZM100.272 8.94629L99.2725 8.94629L99.2725 28.8037L100.272 28.8037L101.272 28.8037L101.272 8.94629L100.272 8.94629ZM370 1L369.034 0.741799L345.089 90.3346L346.055 90.5928L347.021 90.851L370.966 1.25821L370 1ZM346.055 90.5928L345.089 90.3348C344.197 93.6717 342.978 96.6551 341.435 99.2919L342.298 99.7969L343.161 100.302C344.804 97.4932 346.089 94.3404 347.021 90.8508L346.055 90.5928ZM342.298 99.7969L341.434 99.2924C339.876 101.959 338.143 104.289 336.229 106.286L336.951 106.978L337.673 107.669C339.707 105.547 341.533 103.088 343.161 100.301L342.298 99.7969ZM336.951 106.978L336.228 106.286C334.307 108.296 332.248 109.998 330.051 111.406L330.591 112.248L331.13 113.09C333.467 111.592 335.648 109.787 337.674 107.669L336.951 106.978ZM330.591 112.248L330.052 111.405C327.834 112.823 325.603 113.981 323.368 114.872L323.738 115.801L324.109 116.73C326.471 115.787 328.814 114.57 331.129 113.091L330.591 112.248ZM323.738 115.801L323.368 114.872C321.118 115.768 318.915 116.424 316.758 116.844L316.949 117.825L317.14 118.807C319.43 118.361 321.753 117.668 324.108 116.73L323.738 115.801ZM316.949 117.825L316.758 116.844C314.587 117.266 312.598 117.472 310.795 117.472L310.795 118.472L310.795 119.472C312.748 119.472 314.866 119.249 317.14 118.807L316.949 117.825ZM310.795 118.472L310.795 117.472L275.063 117.472L275.063 118.472L275.063 119.472L310.795 119.472L310.795 118.472ZM275.063 118.472L275.063 117.472C271.739 117.472 268.924 117.049 266.601 116.231L266.269 117.174L265.936 118.117C268.527 119.029 271.579 119.472 275.063 119.472L275.063 118.472ZM266.269 117.174L266.6 116.23C264.237 115.4 262.288 114.299 260.731 112.943L260.074 113.697L259.418 114.451C261.197 116.001 263.378 117.217 265.937 118.117L266.269 117.174ZM260.074 113.697L260.729 112.941C259.152 111.575 257.932 110.011 257.05 108.248L256.155 108.695L255.261 109.143C256.265 111.15 257.652 112.922 259.419 114.453L260.074 113.697ZM256.155 108.695L257.048 108.246C256.145 106.452 255.522 104.568 255.178 102.605L254.193 102.777L253.208 102.95C253.586 105.106 254.271 107.176 255.262 109.145L256.155 108.695ZM254.193 102.777L255.178 102.603C254.828 100.619 254.717 98.611 254.847 96.5783L253.849 96.5147L252.851 96.451C252.711 98.6411 252.83 100.808 253.209 102.951L254.193 102.777ZM253.849 96.5147L254.847 96.5765C254.974 94.5244 255.277 92.6142 255.749 90.8516L254.783 90.5928L253.817 90.3339C253.307 92.2386 252.985 94.2821 252.851 96.4528L253.849 96.5147ZM254.783 90.5928L255.749 90.851L262.935 63.9672L261.969 63.709L261.003 63.4508L253.817 90.3346L254.783 90.5928ZM261.969 63.709L262.935 63.9669C264.265 58.9848 266.291 54.7993 268.995 51.3823L268.211 50.7617L267.427 50.1412C264.527 53.8051 262.391 58.2483 261.003 63.4511L261.969 63.709ZM268.211 50.7617L268.995 51.3822C271.735 47.9191 274.738 45.1173 277.999 42.9678L277.449 42.1328L276.899 41.2978C273.439 43.5779 270.283 46.5313 267.427 50.1413L268.211 50.7617ZM277.449 42.1328L277.999 42.9678C281.282 40.8045 284.619 39.2592 288.019 38.3214L287.753 37.3574L287.487 36.3934C283.864 37.3926 280.338 39.0317 276.899 41.2978L277.449 42.1328ZM287.753 37.3574L288.019 38.3214C291.466 37.3696 294.501 36.9053 297.13 36.9053L297.13 35.9053L297.13 34.9053C294.274 34.9053 291.055 35.4083 287.487 36.3935L287.753 37.3574ZM297.13 35.9053L297.13 36.9053L332.861 36.9053L332.861 35.9053L332.861 34.9053L297.13 34.9053L297.13 35.9053ZM332.861 35.9053L331.895 35.6471L326.589 55.5085L327.555 55.7666L328.521 56.0247L333.827 36.1634L332.861 35.9053ZM327.555 55.7666L327.555 54.7666L291.974 54.7666L291.974 55.7666L291.974 56.7666L327.555 56.7666L327.555 55.7666ZM291.974 55.7666L291.974 54.7666C289.158 54.7666 286.741 55.4898 284.8 57.0022L285.415 57.791L286.03 58.5798C287.552 57.3934 289.51 56.7666 291.974 56.7666L291.974 55.7666ZM285.415 57.791L284.8 57.0022C282.861 58.5133 281.547 60.6926 280.81 63.4509L281.776 63.709L282.742 63.9671C283.393 61.5337 284.505 59.7678 286.03 58.5798L285.415 57.791ZM281.776 63.709L280.81 63.4508L273.665 90.1832L274.631 90.4414L275.597 90.6996L282.742 63.9672L281.776 63.709ZM274.631 90.4414L273.665 90.1832C272.916 92.9848 272.962 95.392 274.201 97.1302L275.016 96.5498L275.83 95.9694C275.111 94.961 274.903 93.296 275.597 90.6996L274.631 90.4414ZM275.016 96.5498L274.201 97.1291C275.451 98.8891 277.638 99.6143 280.37 99.6143L280.37 98.6143L280.37 97.6143C277.926 97.6143 276.538 96.9652 275.831 95.9705L275.016 96.5498ZM280.37 98.6143L280.37 99.6143L316.102 99.6143L316.102 98.6143L316.102 97.6143L280.37 97.6143L280.37 98.6143ZM316.102 98.6143L316.102 99.6143C318.966 99.6142 321.398 98.8796 323.304 97.3247L322.672 96.5498L322.04 95.7749C320.569 96.9745 318.618 97.6142 316.102 97.6143L316.102 98.6143ZM322.672 96.5498L323.303 97.3256C325.19 95.7906 326.474 93.6053 327.213 90.8519L326.247 90.5928L325.281 90.3336C324.625 92.7795 323.53 94.5625 322.041 95.7741L322.672 96.5498ZM326.247 90.5928L327.213 90.851L351.158 1.25821L350.192 1L349.226 0.741799L325.281 90.3346L326.247 90.5928ZM350.192 1L350.192 2L370 2L370 1L370 4.40028e-06L350.192 4.16408e-06L350.192 1Z"/>
</svg>
